<?xml version="1.0"?><svg width="640" height="480" xmlns="http://www.w3.org/2000/svg">
 <title>plate</title>
 <metadata id="metadata7">image/svg+xml</metadata>
 <g>
  <title>Layer 1</title>
  <g id="layer1">
   <path d="m56.418499,169.384003c0,29.002991 25.460804,137.746002 31.846905,162.972992c4.718498,18.639008 11.909599,37.819 20.266594,54.324005c11.025002,21.777008 37.156006,29.187012 57.903,34.309998c29.983002,7.402008 64.712006,8.576996 95.540009,8.576996c29.018982,0 61.040009,-9.272003 88.876007,-16.144989c6.815979,-1.682007 24.621979,-3.812012 31.377991,-5.718018c26.264984,-7.41098 39.714996,-14.057983 67.932007,-21.023987c19.187988,-4.737 39.261993,-16.928009 55.009003,-28.59201c19.516998,-14.455994 34.825958,-32.513977 49.21701,-51.464996c2.895996,-3.811981 5.790955,-7.623993 8.685974,-11.436005c11.106018,-14.623993 17.370972,-39.125 17.370972,-57.18399c0,-21.959 2.935059,-38.5 -5.789978,-60.041992c-8.589966,-21.207001 -27.497009,-35.73201 -43.427979,-51.465004c-18.942017,-18.707001 -33.487,-37.889801 -55.883026,-48.948402c-22.838989,-11.277702 -55.888,-11.726196 -81.064972,-20.014099c-31.734009,-10.446499 -70.091003,-13.9533 -103.351013,-13.9533c-25.177002,0 -50.477997,0 -75.274002,0c-25.824997,0 -23.128998,4.034401 -47.865005,8.920101c-17.46199,3.448799 -111.369495,83.169704 -111.369495,116.882702l0,0z" id="path3150" stroke-width="0.81414586px" fill-rule="evenodd" fill="#bfbfbf"/>
   <path id="path1307" d="m457.956665,344.68515a172.762283,172.761429 0 1 1-40.845215,-260.105042" stroke-dashoffset="0" stroke-miterlimit="0" stroke-linecap="round" stroke-width="11.3" stroke="#000000" fill="#bfbfbf"/>
   <path id="path2182" d="m228.739868,146.366943a128.634003,128.486008 0 1 199.015686,210.536499" stroke-dashoffset="0" stroke-miterlimit="0" stroke-linecap="round" stroke-width="11.29991" stroke="#000000" fill="#bfbfbf"/>
   <path d="m483.833008,154.095993l0.509979,-44.027992c0,0 -0.764984,-8.806 6.378998,-8.806c6.889008,0 5.613007,8.806 5.613007,8.806l-0.255005,44.027992c0,0 -0.765991,4.403 5.103027,4.662003c5.867981,0.259003 4.846985,-4.92099 4.846985,-4.92099l-0.255005,-43.251007c0,0 -0.509979,-9.323997 5.614014,-9.323997c6.123016,0 4.847015,9.583 4.847015,9.583l0,44.287003c0,0 1.914001,3.819992 6.123962,3.625992c4.210022,-0.194992 4.911011,-3.690994 5.039001,-3.593994l0.574036,-44.060005c0,0 0,-9.323997 5.357971,-9.582993c5.358032,-0.259003 5.358032,9.582993 5.358032,9.582993l-0.255005,46.618004c0,0 2.856995,37.662003 -14.587036,40.195007c-15.439972,2.241989 6.092041,133.943985 0.335022,137.862991c-5.445984,3.707001 -6.809021,4.359009 -11.911987,4.618011c-5.103027,0.259003 -10.095032,-1.598022 -13.355011,-5.350006c-6.006012,-6.912994 13.082977,-136.227997 1.537994,-137.900009c-15.042999,-2.179993 -16.875,-43.310989 -16.619995,-43.052002l0,0z" id="path4031" stroke-miterlimit="4" stroke-width="5.883" stroke="#000000" fill-rule="evenodd" fill-opacity="0.75" fill="#bfbfbf"/>
   <path d="m86.9049,126.242996c6.889,-13.209 20.922104,-15.371994 27.045097,-15.371994c6.124001,0 22.62001,1.473 27.30101,16.407997c4.740997,15.125008 2.60199,84.280006 -14.84201,86.812996c-15.439995,2.242004 6.09201,133.944016 0.335007,137.862991c-5.446007,3.707001 -6.809006,4.359009 -11.912003,4.618011c-5.103004,0.259003 -9.590004,-0.588013 -12.849998,-4.339996c-6.006302,-6.912994 12.577995,-135.722 1.032997,-137.395004c-15.043297,-2.179993 -22.999001,-75.386993 -16.1101,-88.595001l0,0z" id="path8399" stroke-miterlimit="4" stroke-width="5.883" stroke="#000000" fill-rule="evenodd" fill-opacity="0.75" fill="#bfbfbf"/>
   <path id="path8401" d="m114.745201,127.328957a16.920059,33.366798 0 1 10.903061,66.482933" stroke-dashoffset="0" stroke-miterlimit="4" stroke-linecap="round" stroke-width="5.883" stroke="#000000" fill="#bfbfbf"/>
  </g>
 </g>
</svg>